<svg width="1440" height="572" viewBox="0 0 1440 572" fill="none" xmlns="http://www.w3.org/2000/svg">
<g opacity="0.1" clip-path="url(#clip0)">
<path d="M188.178 338.139C188.178 335.914 189.982 334.11 192.207 334.11C194.431 334.11 196.235 335.914 196.235 338.139C196.235 340.363 194.431 342.167 192.207 342.167C190.007 342.167 188.178 340.363 188.178 338.139Z" fill="url(#paint0_linear)"/>
<path d="M192.899 246.82H191.564V335.791H192.899V246.82Z" fill="url(#paint1_linear)"/>
<path d="M5.44171 228.581C5.44171 226.357 7.24585 224.552 9.47012 224.552C11.6944 224.552 13.4985 226.357 13.4985 228.581C13.4985 230.805 11.6944 232.609 9.47012 232.609C7.24585 232.609 5.44171 230.805 5.44171 228.581Z" fill="url(#paint2_linear)"/>
<path d="M10.1374 137.262H8.8028V226.258H10.1374V137.262Z" fill="url(#paint3_linear)"/>
<path d="M55.5126 133.901C55.5126 131.677 57.3167 129.873 59.541 129.873C61.7653 129.873 63.5694 131.677 63.5694 133.901C63.5694 136.125 61.7653 137.929 59.541 137.929C57.3167 137.929 55.5126 136.125 55.5126 133.901Z" fill="url(#paint4_linear)"/>
<path d="M60.2329 42.5822H58.8984V131.553H60.2329V42.5822Z" fill="url(#paint5_linear)"/>
<path d="M95.7472 154.34C95.7472 152.115 97.5513 150.311 99.7756 150.311C102 150.311 103.804 152.115 103.804 154.34C103.804 156.564 102 158.368 99.7756 158.368C97.5761 158.393 95.7472 156.589 95.7472 154.34Z" fill="url(#paint6_linear)"/>
<path d="M100.468 63.0455H99.133V152.041H100.468V63.0455Z" fill="url(#paint7_linear)"/>
<path d="M161.388 384.082C161.388 381.858 163.192 380.054 165.416 380.054C167.641 380.054 169.445 381.858 169.445 384.082C169.445 386.307 167.641 388.111 165.416 388.111C163.192 388.111 161.388 386.307 161.388 384.082Z" fill="url(#paint8_linear)"/>
<path d="M166.108 292.764H164.774V381.735H166.108V292.764Z" fill="url(#paint9_linear)"/>
<path d="M223.742 124.954C223.742 122.73 225.546 120.926 227.77 120.926C229.994 120.926 231.799 122.73 231.799 124.954C231.799 127.179 229.994 128.983 227.77 128.983C225.546 128.983 223.742 127.179 223.742 124.954Z" fill="url(#paint10_linear)"/>
<path d="M228.438 33.6603H227.103V122.631H228.438V33.6603Z" fill="url(#paint11_linear)"/>
<path d="M112.553 121C112.553 118.776 114.357 116.972 116.581 116.972C118.806 116.972 120.61 118.776 120.61 121C120.61 123.224 118.806 125.029 116.581 125.029C114.357 125.029 112.553 123.224 112.553 121Z" fill="url(#paint12_linear)"/>
<path d="M117.273 74.1916H115.939V118.677H117.273V74.1916Z" fill="url(#paint13_linear)"/>
<path d="M264.495 344.663C264.495 342.439 266.3 340.635 268.524 340.635C270.748 340.635 272.552 342.439 272.552 344.663C272.552 346.888 270.748 348.692 268.524 348.692C266.324 348.692 264.495 346.888 264.495 344.663Z" fill="url(#paint14_linear)"/>
<path d="M269.216 297.83H267.881V342.315H269.216V297.83Z" fill="url(#paint15_linear)"/>
<path d="M32.7261 108.94C32.7261 106.715 34.5302 104.911 36.7545 104.911C38.9787 104.911 40.7829 106.715 40.7829 108.94C40.7829 111.164 38.9787 112.968 36.7545 112.968C34.5302 112.968 32.7261 111.164 32.7261 108.94Z" fill="url(#paint16_linear)"/>
<path d="M37.4465 62.1064H36.1119V106.592H37.4465V62.1064Z" fill="url(#paint17_linear)"/>
<path d="M162.97 47.3026C162.97 45.0783 164.774 43.2742 166.998 43.2742C169.222 43.2742 171.027 45.0783 171.027 47.3026C171.027 49.5269 169.222 51.331 166.998 51.331C164.799 51.3557 162.97 49.5269 162.97 47.3026Z" fill="url(#paint18_linear)"/>
<path d="M167.69 0.493988H166.356V44.9795H167.69V0.493988Z" fill="url(#paint19_linear)"/>
<path d="M106.918 372.862C106.918 370.638 108.722 368.834 110.946 368.834C113.171 368.834 114.975 370.638 114.975 372.862C114.975 375.086 113.171 376.89 110.946 376.89C108.722 376.89 106.918 375.086 106.918 372.862Z" fill="url(#paint20_linear)"/>
<path d="M111.614 281.543H110.279V370.539H111.614V281.543Z" fill="url(#paint21_linear)"/>
<path d="M222.852 325.633C222.852 323.409 224.656 321.605 226.88 321.605C229.105 321.605 230.909 323.409 230.909 325.633C230.909 327.858 229.105 329.662 226.88 329.662C224.656 329.686 222.852 327.882 222.852 325.633Z" fill="url(#paint22_linear)"/>
<path d="M227.548 234.339H226.213V323.335H227.548V234.339Z" fill="url(#paint23_linear)"/>
<path d="M28.6977 549.815C28.6977 547.591 30.5018 545.787 32.7261 545.787C34.9504 545.787 36.7545 547.591 36.7545 549.815C36.7545 552.04 34.9504 553.844 32.7261 553.844C30.5018 553.869 28.6977 552.04 28.6977 549.815Z" fill="url(#paint24_linear)"/>
<path d="M33.3934 240.468H32.0588V547.492H33.3934V240.468Z" fill="url(#paint25_linear)"/>
<path d="M199.522 374.024C199.522 371.8 201.326 369.995 203.55 369.995C205.775 369.995 207.579 371.8 207.579 374.024C207.579 376.248 205.775 378.052 203.55 378.052C201.326 378.052 199.522 376.248 199.522 374.024Z" fill="url(#paint26_linear)"/>
<path d="M204.218 64.6766H202.883V371.701H204.218V64.6766Z" fill="url(#paint27_linear)"/>
<path d="M91.0021 464.008C91.0021 461.784 92.8062 459.98 95.0305 459.98C97.2547 459.98 99.0589 461.784 99.0589 464.008C99.0589 466.232 97.2547 468.036 95.0305 468.036C92.8062 468.061 91.0021 466.232 91.0021 464.008Z" fill="url(#paint28_linear)"/>
<path d="M95.7225 154.686H94.3879V461.71H95.7225V154.686Z" fill="url(#paint29_linear)"/>
<path d="M176.291 225.862C176.291 223.638 178.095 221.834 180.319 221.834C182.543 221.834 184.347 223.638 184.347 225.862C184.347 228.087 182.543 229.891 180.319 229.891C178.095 229.916 176.291 228.111 176.291 225.862Z" fill="url(#paint30_linear)"/>
<path d="M181.011 53.6788H179.676V223.539H181.011V53.6788Z" fill="url(#paint31_linear)"/>
<path d="M-2.98584 316.316C-2.98584 314.092 -1.1817 312.288 1.04257 312.288C3.26684 312.288 5.07097 314.092 5.07097 316.316C5.07097 318.54 3.26684 320.345 1.04257 320.345C-1.1817 320.345 -2.98584 318.54 -2.98584 316.316Z" fill="url(#paint32_linear)"/>
<path d="M1.73453 144.133H0.399963V313.993H1.73453V144.133Z" fill="url(#paint33_linear)"/>
<path d="M1319.77 380.722C1319.77 378.497 1321.58 376.693 1323.8 376.693C1326.03 376.693 1327.83 378.497 1327.83 380.722C1327.83 382.946 1326.03 384.75 1323.8 384.75C1321.58 384.775 1319.77 382.946 1319.77 380.722Z" fill="url(#paint34_linear)"/>
<path d="M1324.47 316.366H1323.14V378.423H1324.47V316.366Z" fill="url(#paint35_linear)"/>
<path d="M1215.85 290.614C1215.85 288.389 1217.66 286.585 1219.88 286.585C1222.1 286.585 1223.91 288.389 1223.91 290.614C1223.91 292.838 1222.1 294.642 1219.88 294.642C1217.66 294.642 1215.85 292.838 1215.85 290.614Z" fill="url(#paint36_linear)"/>
<path d="M1220.55 127.673H1219.21V288.291H1220.55V127.673Z" fill="url(#paint37_linear)"/>
<path d="M1169.91 151.745C1169.91 149.521 1171.71 147.717 1173.94 147.717C1176.16 147.717 1177.96 149.521 1177.96 151.745C1177.96 153.969 1176.16 155.773 1173.94 155.773C1171.74 155.798 1169.91 153.994 1169.91 151.745Z" fill="url(#paint38_linear)"/>
<path d="M1174.63 60.4508H1173.29V149.446H1174.63V60.4508Z" fill="url(#paint39_linear)"/>
<path d="M1294.64 221.884C1294.64 219.659 1296.44 217.855 1298.67 217.855C1300.89 217.855 1302.7 219.659 1302.7 221.884C1302.7 224.108 1300.89 225.912 1298.67 225.912C1296.44 225.937 1294.64 224.108 1294.64 221.884Z" fill="url(#paint40_linear)"/>
<path d="M1299.34 130.59H1298V219.585H1299.34V130.59Z" fill="url(#paint41_linear)"/>
<path d="M1422.17 228.903C1422.17 226.678 1423.97 224.874 1426.19 224.874C1428.42 224.874 1430.22 226.678 1430.22 228.903C1430.22 231.127 1428.42 232.931 1426.19 232.931C1423.97 232.931 1422.17 231.127 1422.17 228.903Z" fill="url(#paint42_linear)"/>
<path d="M1426.89 137.608H1425.55V226.604H1426.89V137.608Z" fill="url(#paint43_linear)"/>
<path d="M1282.8 296.273C1282.8 294.049 1284.61 292.245 1286.83 292.245C1289.06 292.245 1290.86 294.049 1290.86 296.273C1290.86 298.498 1289.06 300.302 1286.83 300.302C1284.61 300.326 1282.8 298.498 1282.8 296.273Z" fill="url(#paint44_linear)"/>
<path d="M1287.52 127.055H1286.19V293.95H1287.52V127.055Z" fill="url(#paint45_linear)"/>
<path d="M1306.26 265.677C1306.26 263.453 1308.06 261.649 1310.28 261.649C1312.51 261.649 1314.31 263.453 1314.31 265.677C1314.31 267.901 1312.51 269.706 1310.28 269.706C1308.06 269.706 1306.26 267.901 1306.26 265.677Z" fill="url(#paint46_linear)"/>
<path d="M1310.98 130.12H1309.64V263.354H1310.98V130.12Z" fill="url(#paint47_linear)"/>
<path d="M1248.77 442.655C1248.77 440.431 1250.58 438.627 1252.8 438.627C1255.02 438.627 1256.83 440.431 1256.83 442.655C1256.83 444.879 1255.02 446.684 1252.8 446.684C1250.6 446.684 1248.77 444.879 1248.77 442.655Z" fill="url(#paint48_linear)"/>
<path d="M1253.49 133.308H1252.16V440.332H1253.49V133.308Z" fill="url(#paint49_linear)"/>
<path d="M1366.29 309.347C1366.29 307.123 1368.09 305.319 1370.32 305.319C1372.54 305.319 1374.34 307.123 1374.34 309.347C1374.34 311.571 1372.54 313.375 1370.32 313.375C1368.09 313.375 1366.29 311.571 1366.29 309.347Z" fill="url(#paint50_linear)"/>
<path d="M1371.01 0H1369.67V307.024H1371.01V0Z" fill="url(#paint51_linear)"/>
<path d="M1427.45 326.523C1427.45 324.299 1429.26 322.495 1431.48 322.495C1433.71 322.495 1435.51 324.299 1435.51 326.523C1435.51 328.748 1433.71 330.552 1431.48 330.552C1429.26 330.552 1427.45 328.748 1427.45 326.523Z" fill="url(#paint52_linear)"/>
<path d="M1432.15 17.1764H1430.82V324.2H1432.15V17.1764Z" fill="url(#paint53_linear)"/>
<path d="M1180.61 510.248C1180.61 508.024 1182.41 506.22 1184.64 506.22C1186.86 506.22 1188.67 508.024 1188.67 510.248C1188.67 512.473 1186.86 514.277 1184.64 514.277C1182.44 514.277 1180.61 512.473 1180.61 510.248Z" fill="url(#paint54_linear)"/>
<path d="M1185.33 200.901H1184V507.925H1185.33V200.901Z" fill="url(#paint55_linear)"/>
<path d="M1438.43 388.63C1438.43 386.406 1440.23 384.602 1442.46 384.602C1444.68 384.602 1446.48 386.406 1446.48 388.63C1446.48 390.854 1444.68 392.659 1442.46 392.659C1440.23 392.659 1438.43 390.854 1438.43 388.63Z" fill="url(#paint56_linear)"/>
<path d="M1127.89 428.197C1127.89 425.973 1129.7 424.169 1131.92 424.169C1134.15 424.169 1135.95 425.973 1135.95 428.197C1135.95 430.422 1134.15 432.226 1131.92 432.226C1129.7 432.251 1127.89 430.446 1127.89 428.197Z" fill="url(#paint57_linear)"/>
<path d="M1132.59 256.014H1131.26V425.874H1132.59V256.014Z" fill="url(#paint58_linear)"/>
<path d="M1197.34 243.089C1197.34 240.864 1199.14 239.06 1201.37 239.06C1203.59 239.06 1205.4 240.864 1205.4 243.089C1205.4 245.313 1203.59 247.117 1201.37 247.117C1199.14 247.142 1197.34 245.338 1197.34 243.089Z" fill="url(#paint59_linear)"/>
<path d="M1202.06 117.763H1200.73V240.79H1202.06V117.763Z" fill="url(#paint60_linear)"/>
<path d="M1416.98 460.202C1416.98 457.978 1418.78 456.174 1421 456.174C1423.23 456.174 1425.03 457.978 1425.03 460.202C1425.03 462.427 1423.23 464.231 1421 464.231C1418.78 464.231 1416.98 462.427 1416.98 460.202Z" fill="url(#paint61_linear)"/>
<path d="M1421.7 287.994H1420.36V457.855H1421.7V287.994Z" fill="url(#paint62_linear)"/>
</g>
<defs>
<linearGradient id="paint0_linear" x1="192.224" y1="315.457" x2="192.224" y2="245.437" gradientUnits="userSpaceOnUse">
<stop stop-color="#A4FFFF"/>
<stop offset="1" stop-color="#A4FFFF" stop-opacity="0"/>
</linearGradient>
<linearGradient id="paint1_linear" x1="192.227" y1="315.456" x2="192.227" y2="245.438" gradientUnits="userSpaceOnUse">
<stop stop-color="#A4FFFF"/>
<stop offset="1" stop-color="#A4FFFF" stop-opacity="0"/>
</linearGradient>
<linearGradient id="paint2_linear" x1="9.46987" y1="205.897" x2="9.46987" y2="135.856" gradientUnits="userSpaceOnUse">
<stop stop-color="#A4FFFF"/>
<stop offset="1" stop-color="#A4FFFF" stop-opacity="0"/>
</linearGradient>
<linearGradient id="paint3_linear" x1="9.46958" y1="205.905" x2="9.46958" y2="135.884" gradientUnits="userSpaceOnUse">
<stop stop-color="#A4FFFF"/>
<stop offset="1" stop-color="#A4FFFF" stop-opacity="0"/>
</linearGradient>
<linearGradient id="paint4_linear" x1="59.557" y1="111.226" x2="59.557" y2="41.2065" gradientUnits="userSpaceOnUse">
<stop stop-color="#A4FFFF"/>
<stop offset="1" stop-color="#A4FFFF" stop-opacity="0"/>
</linearGradient>
<linearGradient id="paint5_linear" x1="59.5568" y1="111.225" x2="59.5568" y2="41.2073" gradientUnits="userSpaceOnUse">
<stop stop-color="#A4FFFF"/>
<stop offset="1" stop-color="#A4FFFF" stop-opacity="0"/>
</linearGradient>
<linearGradient id="paint6_linear" x1="99.7946" y1="131.676" x2="99.7946" y2="61.6535" gradientUnits="userSpaceOnUse">
<stop stop-color="#A4FFFF"/>
<stop offset="1" stop-color="#A4FFFF" stop-opacity="0"/>
</linearGradient>
<linearGradient id="paint7_linear" x1="99.7946" y1="131.676" x2="99.7946" y2="61.6568" gradientUnits="userSpaceOnUse">
<stop stop-color="#A4FFFF"/>
<stop offset="1" stop-color="#A4FFFF" stop-opacity="0"/>
</linearGradient>
<linearGradient id="paint8_linear" x1="165.431" y1="361.411" x2="165.431" y2="291.41" gradientUnits="userSpaceOnUse">
<stop stop-color="#A4FFFF"/>
<stop offset="1" stop-color="#A4FFFF" stop-opacity="0"/>
</linearGradient>
<linearGradient id="paint9_linear" x1="165.432" y1="361.404" x2="165.432" y2="291.386" gradientUnits="userSpaceOnUse">
<stop stop-color="#A4FFFF"/>
<stop offset="1" stop-color="#A4FFFF" stop-opacity="0"/>
</linearGradient>
<linearGradient id="paint10_linear" x1="227.771" y1="102.282" x2="227.771" y2="32.2625" gradientUnits="userSpaceOnUse">
<stop stop-color="#A4FFFF"/>
<stop offset="1" stop-color="#A4FFFF" stop-opacity="0"/>
</linearGradient>
<linearGradient id="paint11_linear" x1="227.77" y1="102.281" x2="227.77" y2="32.263" gradientUnits="userSpaceOnUse">
<stop stop-color="#A4FFFF"/>
<stop offset="1" stop-color="#A4FFFF" stop-opacity="0"/>
</linearGradient>
<linearGradient id="paint12_linear" x1="116.593" y1="98.3314" x2="116.593" y2="28.3118" gradientUnits="userSpaceOnUse">
<stop stop-color="#A4FFFF"/>
<stop offset="1" stop-color="#A4FFFF" stop-opacity="0"/>
</linearGradient>
<linearGradient id="paint13_linear" x1="116.594" y1="108.507" x2="116.594" y2="73.4979" gradientUnits="userSpaceOnUse">
<stop stop-color="#A4FFFF"/>
<stop offset="1" stop-color="#A4FFFF" stop-opacity="0"/>
</linearGradient>
<linearGradient id="paint14_linear" x1="268.542" y1="321.981" x2="268.542" y2="251.961" gradientUnits="userSpaceOnUse">
<stop stop-color="#A4FFFF"/>
<stop offset="1" stop-color="#A4FFFF" stop-opacity="0"/>
</linearGradient>
<linearGradient id="paint15_linear" x1="268.542" y1="332.157" x2="268.542" y2="297.148" gradientUnits="userSpaceOnUse">
<stop stop-color="#A4FFFF"/>
<stop offset="1" stop-color="#A4FFFF" stop-opacity="0"/>
</linearGradient>
<linearGradient id="paint16_linear" x1="36.771" y1="86.2509" x2="36.771" y2="16.2097" gradientUnits="userSpaceOnUse">
<stop stop-color="#A4FFFF"/>
<stop offset="1" stop-color="#A4FFFF" stop-opacity="0"/>
</linearGradient>
<linearGradient id="paint17_linear" x1="36.7711" y1="96.4351" x2="36.7711" y2="61.4255" gradientUnits="userSpaceOnUse">
<stop stop-color="#A4FFFF"/>
<stop offset="1" stop-color="#A4FFFF" stop-opacity="0"/>
</linearGradient>
<linearGradient id="paint18_linear" x1="167.018" y1="24.6352" x2="167.018" y2="-45.3847" gradientUnits="userSpaceOnUse">
<stop stop-color="#A4FFFF"/>
<stop offset="1" stop-color="#A4FFFF" stop-opacity="0"/>
</linearGradient>
<linearGradient id="paint19_linear" x1="167.02" y1="34.8103" x2="167.02" y2="-0.195785" gradientUnits="userSpaceOnUse">
<stop stop-color="#A4FFFF"/>
<stop offset="1" stop-color="#A4FFFF" stop-opacity="0"/>
</linearGradient>
<linearGradient id="paint20_linear" x1="110.957" y1="350.188" x2="110.957" y2="280.168" gradientUnits="userSpaceOnUse">
<stop stop-color="#A4FFFF"/>
<stop offset="1" stop-color="#A4FFFF" stop-opacity="0"/>
</linearGradient>
<linearGradient id="paint21_linear" x1="110.956" y1="350.188" x2="110.956" y2="280.168" gradientUnits="userSpaceOnUse">
<stop stop-color="#A4FFFF"/>
<stop offset="1" stop-color="#A4FFFF" stop-opacity="0"/>
</linearGradient>
<linearGradient id="paint22_linear" x1="226.887" y1="302.964" x2="226.887" y2="232.923" gradientUnits="userSpaceOnUse">
<stop stop-color="#A4FFFF"/>
<stop offset="1" stop-color="#A4FFFF" stop-opacity="0"/>
</linearGradient>
<linearGradient id="paint23_linear" x1="226.888" y1="302.97" x2="226.888" y2="232.952" gradientUnits="userSpaceOnUse">
<stop stop-color="#A4FFFF"/>
<stop offset="1" stop-color="#A4FFFF" stop-opacity="0"/>
</linearGradient>
<linearGradient id="paint24_linear" x1="32.7345" y1="510.33" x2="32.7345" y2="385.631" gradientUnits="userSpaceOnUse">
<stop stop-color="#A4FFFF"/>
<stop offset="1" stop-color="#A4FFFF" stop-opacity="0"/>
</linearGradient>
<linearGradient id="paint25_linear" x1="32.7358" y1="479.128" x2="32.7358" y2="249.739" gradientUnits="userSpaceOnUse">
<stop stop-color="#A4FFFF"/>
<stop offset="1" stop-color="#A4FFFF" stop-opacity="0"/>
</linearGradient>
<linearGradient id="paint26_linear" x1="203.548" y1="334.534" x2="203.548" y2="209.835" gradientUnits="userSpaceOnUse">
<stop stop-color="#A4FFFF"/>
<stop offset="1" stop-color="#A4FFFF" stop-opacity="0"/>
</linearGradient>
<linearGradient id="paint27_linear" x1="203.55" y1="303.331" x2="203.55" y2="73.9432" gradientUnits="userSpaceOnUse">
<stop stop-color="#A4FFFF"/>
<stop offset="1" stop-color="#A4FFFF" stop-opacity="0"/>
</linearGradient>
<linearGradient id="paint28_linear" x1="95.0448" y1="424.523" x2="95.0448" y2="299.825" gradientUnits="userSpaceOnUse">
<stop stop-color="#A4FFFF"/>
<stop offset="1" stop-color="#A4FFFF" stop-opacity="0"/>
</linearGradient>
<linearGradient id="paint29_linear" x1="95.0461" y1="393.319" x2="95.0461" y2="163.932" gradientUnits="userSpaceOnUse">
<stop stop-color="#A4FFFF"/>
<stop offset="1" stop-color="#A4FFFF" stop-opacity="0"/>
</linearGradient>
<linearGradient id="paint30_linear" x1="180.33" y1="186.369" x2="180.33" y2="61.632" gradientUnits="userSpaceOnUse">
<stop stop-color="#A4FFFF"/>
<stop offset="1" stop-color="#A4FFFF" stop-opacity="0"/>
</linearGradient>
<linearGradient id="paint31_linear" x1="180.33" y1="185.724" x2="180.33" y2="58.8085" gradientUnits="userSpaceOnUse">
<stop stop-color="#A4FFFF"/>
<stop offset="1" stop-color="#A4FFFF" stop-opacity="0"/>
</linearGradient>
<linearGradient id="paint32_linear" x1="1.05517" y1="276.828" x2="1.05517" y2="152.167" gradientUnits="userSpaceOnUse">
<stop stop-color="#A4FFFF"/>
<stop offset="1" stop-color="#A4FFFF" stop-opacity="0"/>
</linearGradient>
<linearGradient id="paint33_linear" x1="1.05514" y1="276.159" x2="1.05514" y2="149.245" gradientUnits="userSpaceOnUse">
<stop stop-color="#A4FFFF"/>
<stop offset="1" stop-color="#A4FFFF" stop-opacity="0"/>
</linearGradient>
<linearGradient id="paint34_linear" x1="1323.8" y1="358.066" x2="1323.8" y2="288.068" gradientUnits="userSpaceOnUse">
<stop stop-color="#A4FFFF"/>
<stop offset="1" stop-color="#A4FFFF" stop-opacity="0"/>
</linearGradient>
<linearGradient id="paint35_linear" x1="1323.8" y1="364.217" x2="1323.8" y2="315.388" gradientUnits="userSpaceOnUse">
<stop stop-color="#A4FFFF"/>
<stop offset="1" stop-color="#A4FFFF" stop-opacity="0"/>
</linearGradient>
<linearGradient id="paint36_linear" x1="1219.88" y1="267.943" x2="1219.88" y2="197.923" gradientUnits="userSpaceOnUse">
<stop stop-color="#A4FFFF"/>
<stop offset="1" stop-color="#A4FFFF" stop-opacity="0"/>
</linearGradient>
<linearGradient id="paint37_linear" x1="1219.88" y1="251.561" x2="1219.88" y2="125.179" gradientUnits="userSpaceOnUse">
<stop stop-color="#A4FFFF"/>
<stop offset="1" stop-color="#A4FFFF" stop-opacity="0"/>
</linearGradient>
<linearGradient id="paint38_linear" x1="1173.96" y1="129.083" x2="1173.96" y2="59.063" gradientUnits="userSpaceOnUse">
<stop stop-color="#A4FFFF"/>
<stop offset="1" stop-color="#A4FFFF" stop-opacity="0"/>
</linearGradient>
<linearGradient id="paint39_linear" x1="1173.96" y1="129.083" x2="1173.96" y2="59.0636" gradientUnits="userSpaceOnUse">
<stop stop-color="#A4FFFF"/>
<stop offset="1" stop-color="#A4FFFF" stop-opacity="0"/>
</linearGradient>
<linearGradient id="paint40_linear" x1="1298.67" y1="199.207" x2="1298.67" y2="129.166" gradientUnits="userSpaceOnUse">
<stop stop-color="#A4FFFF"/>
<stop offset="1" stop-color="#A4FFFF" stop-opacity="0"/>
</linearGradient>
<linearGradient id="paint41_linear" x1="1298.67" y1="199.213" x2="1298.67" y2="129.194" gradientUnits="userSpaceOnUse">
<stop stop-color="#A4FFFF"/>
<stop offset="1" stop-color="#A4FFFF" stop-opacity="0"/>
</linearGradient>
<linearGradient id="paint42_linear" x1="1426.21" y1="206.234" x2="1426.21" y2="136.214" gradientUnits="userSpaceOnUse">
<stop stop-color="#A4FFFF"/>
<stop offset="1" stop-color="#A4FFFF" stop-opacity="0"/>
</linearGradient>
<linearGradient id="paint43_linear" x1="1426.21" y1="206.234" x2="1426.21" y2="136.215" gradientUnits="userSpaceOnUse">
<stop stop-color="#A4FFFF"/>
<stop offset="1" stop-color="#A4FFFF" stop-opacity="0"/>
</linearGradient>
<linearGradient id="paint44_linear" x1="1286.85" y1="256.788" x2="1286.85" y2="132.089" gradientUnits="userSpaceOnUse">
<stop stop-color="#A4FFFF"/>
<stop offset="1" stop-color="#A4FFFF" stop-opacity="0"/>
</linearGradient>
<linearGradient id="paint45_linear" x1="1286.85" y1="256.79" x2="1286.85" y2="132.092" gradientUnits="userSpaceOnUse">
<stop stop-color="#A4FFFF"/>
<stop offset="1" stop-color="#A4FFFF" stop-opacity="0"/>
</linearGradient>
<linearGradient id="paint46_linear" x1="1310.3" y1="226.18" x2="1310.3" y2="101.481" gradientUnits="userSpaceOnUse">
<stop stop-color="#A4FFFF"/>
<stop offset="1" stop-color="#A4FFFF" stop-opacity="0"/>
</linearGradient>
<linearGradient id="paint47_linear" x1="1310.3" y1="233.675" x2="1310.3" y2="134.127" gradientUnits="userSpaceOnUse">
<stop stop-color="#A4FFFF"/>
<stop offset="1" stop-color="#A4FFFF" stop-opacity="0"/>
</linearGradient>
<linearGradient id="paint48_linear" x1="1252.82" y1="403.166" x2="1252.82" y2="278.467" gradientUnits="userSpaceOnUse">
<stop stop-color="#A4FFFF"/>
<stop offset="1" stop-color="#A4FFFF" stop-opacity="0"/>
</linearGradient>
<linearGradient id="paint49_linear" x1="1252.82" y1="371.961" x2="1252.82" y2="142.573" gradientUnits="userSpaceOnUse">
<stop stop-color="#A4FFFF"/>
<stop offset="1" stop-color="#A4FFFF" stop-opacity="0"/>
</linearGradient>
<linearGradient id="paint50_linear" x1="1370.33" y1="269.841" x2="1370.33" y2="145.104" gradientUnits="userSpaceOnUse">
<stop stop-color="#A4FFFF"/>
<stop offset="1" stop-color="#A4FFFF" stop-opacity="0"/>
</linearGradient>
<linearGradient id="paint51_linear" x1="1370.33" y1="238.647" x2="1370.33" y2="9.25916" gradientUnits="userSpaceOnUse">
<stop stop-color="#A4FFFF"/>
<stop offset="1" stop-color="#A4FFFF" stop-opacity="0"/>
</linearGradient>
<linearGradient id="paint52_linear" x1="1431.49" y1="287.022" x2="1431.49" y2="162.288" gradientUnits="userSpaceOnUse">
<stop stop-color="#A4FFFF"/>
<stop offset="1" stop-color="#A4FFFF" stop-opacity="0"/>
</linearGradient>
<linearGradient id="paint53_linear" x1="1431.49" y1="255.831" x2="1431.49" y2="26.441" gradientUnits="userSpaceOnUse">
<stop stop-color="#A4FFFF"/>
<stop offset="1" stop-color="#A4FFFF" stop-opacity="0"/>
</linearGradient>
<linearGradient id="paint54_linear" x1="1184.66" y1="470.758" x2="1184.66" y2="346.06" gradientUnits="userSpaceOnUse">
<stop stop-color="#A4FFFF"/>
<stop offset="1" stop-color="#A4FFFF" stop-opacity="0"/>
</linearGradient>
<linearGradient id="paint55_linear" x1="1184.66" y1="439.554" x2="1184.66" y2="210.168" gradientUnits="userSpaceOnUse">
<stop stop-color="#A4FFFF"/>
<stop offset="1" stop-color="#A4FFFF" stop-opacity="0"/>
</linearGradient>
<linearGradient id="paint56_linear" x1="1442.47" y1="349.146" x2="1442.47" y2="224.485" gradientUnits="userSpaceOnUse">
<stop stop-color="#A4FFFF"/>
<stop offset="1" stop-color="#A4FFFF" stop-opacity="0"/>
</linearGradient>
<linearGradient id="paint57_linear" x1="1131.93" y1="388.719" x2="1131.93" y2="264.02" gradientUnits="userSpaceOnUse">
<stop stop-color="#A4FFFF"/>
<stop offset="1" stop-color="#A4FFFF" stop-opacity="0"/>
</linearGradient>
<linearGradient id="paint58_linear" x1="1131.93" y1="388.058" x2="1131.93" y2="261.146" gradientUnits="userSpaceOnUse">
<stop stop-color="#A4FFFF"/>
<stop offset="1" stop-color="#A4FFFF" stop-opacity="0"/>
</linearGradient>
<linearGradient id="paint59_linear" x1="1201.39" y1="203.61" x2="1201.39" y2="78.9117" gradientUnits="userSpaceOnUse">
<stop stop-color="#A4FFFF"/>
<stop offset="1" stop-color="#A4FFFF" stop-opacity="0"/>
</linearGradient>
<linearGradient id="paint60_linear" x1="1201.39" y1="213.385" x2="1201.39" y2="121.474" gradientUnits="userSpaceOnUse">
<stop stop-color="#A4FFFF"/>
<stop offset="1" stop-color="#A4FFFF" stop-opacity="0"/>
</linearGradient>
<linearGradient id="paint61_linear" x1="1421.02" y1="420.716" x2="1421.02" y2="296.055" gradientUnits="userSpaceOnUse">
<stop stop-color="#A4FFFF"/>
<stop offset="1" stop-color="#A4FFFF" stop-opacity="0"/>
</linearGradient>
<linearGradient id="paint62_linear" x1="1421.02" y1="420.044" x2="1421.02" y2="293.129" gradientUnits="userSpaceOnUse">
<stop stop-color="#A4FFFF"/>
<stop offset="1" stop-color="#A4FFFF" stop-opacity="0"/>
</linearGradient>
<clipPath id="clip0">
<rect width="1537" height="572" fill="white" transform="translate(-21)"/>
</clipPath>
</defs>
</svg>
